<?xml version="1.0" encoding="UTF-8" standalone="no"?>
<svg
   width="1024"
   height="512"
   viewBox="-512 0 1024 512"
   version="1.1"
   xml:space="preserve"
   style="clip-rule:evenodd;fill-rule:evenodd;stroke-linejoin:round;stroke-miterlimit:2"
   id="svg3"
   sodipodi:docname="Privacy_Guides_logo_wide.svg"
   inkscape:version="1.4.2 (ebf0e940d0, 2025-05-08)"
   xmlns:inkscape="http://www.inkscape.org/namespaces/inkscape"
   xmlns:sodipodi="http://sodipodi.sourceforge.net/DTD/sodipodi-0.dtd"
   xmlns="http://www.w3.org/2000/svg"
   xmlns:svg="http://www.w3.org/2000/svg"><defs
   id="defs3" /><sodipodi:namedview
   id="namedview3"
   pagecolor="#505050"
   bordercolor="#ffffff"
   borderopacity="1"
   inkscape:showpageshadow="0"
   inkscape:pageopacity="0"
   inkscape:pagecheckerboard="1"
   inkscape:deskcolor="#d1d1d1"
   inkscape:zoom="0.39794922"
   inkscape:cx="50.257669"
   inkscape:cy="380.70184"
   inkscape:window-width="1920"
   inkscape:window-height="1002"
   inkscape:window-x="0"
   inkscape:window-y="0"
   inkscape:window-maximized="1"
   inkscape:current-layer="svg3" />
    <g
   transform="matrix(14.222222,0,0,7.11111,-512,0)"
   id="g1">
        <rect
   x="0"
   y="0"
   width="72"
   height="72"
   style="fill:#ffd06f"
   id="rect1" />
    </g>
    <g
   transform="matrix(5.69816,0,0,5.69816,41.2613,46.2665)"
   id="g2">
        <path
   d="m 18.466,16.31 c -0.187,0.628 -0.082,1.363 0.128,2.831 l 2.659,18.614 c 0.46,3.216 0.689,4.823 1.298,6.26 0.539,1.274 1.294,2.445 2.232,3.461 1.059,1.147 2.429,2.018 5.169,3.762 l 3.896,2.479 c 1.868,1.189 2.802,1.783 3.806,2.015 0.772,0.178 1.57,0.201 2.349,0.069 -0.644,-1.471 -1.001,-3.095 -1.001,-4.804 0,-6.627 5.373,-12 12,-12 1.934,0 3.761,0.458 5.379,1.27 0.113,-0.717 0.231,-1.541 0.37,-2.512 v 0 L 59.41,19.141 c 0.21,-1.468 0.315,-2.203 0.128,-2.831 -0.164,-0.554 -0.485,-1.049 -0.923,-1.425 -0.498,-0.427 -1.212,-0.63 -2.638,-1.038 L 40.321,9.374 C 39.83,9.234 39.585,9.164 39.335,9.136 39.114,9.111 38.891,9.111 38.669,9.136 38.42,9.164 38.174,9.234 37.684,9.374 l -15.657,4.473 c -1.426,0.408 -2.14,0.611 -2.637,1.038 -0.439,0.376 -0.76,0.871 -0.924,1.425 z"
   style="fill:#fff6eb"
   id="path1" />
    </g>
    <g
   transform="matrix(5.69816,0,0,5.69816,41.2613,46.2665)"
   id="g3">
        <path
   d="m 32.836,13.626 c 0.11,-0.012 0.222,-0.012 0.333,0 0.096,0.011 0.202,0.037 0.74,0.19 l 15.656,4.473 c 0.735,0.211 1.206,0.346 1.558,0.476 0.335,0.125 0.455,0.207 0.515,0.259 0.22,0.188 0.38,0.435 0.462,0.712 0.023,0.077 0.049,0.22 0.026,0.577 -0.024,0.375 -0.092,0.859 -0.201,1.616 L 49.692,37.56 c -6.841,0.659 -12.19,6.423 -12.19,13.437 0,1.385 0.209,2.721 0.596,3.979 l -0.747,0.476 c -1.963,1.249 -2.645,1.658 -3.337,1.818 -0.666,0.154 -1.357,0.154 -2.023,0 -0.693,-0.16 -1.375,-0.569 -3.337,-1.818 L 24.758,52.973 C 21.95,51.186 20.781,50.428 19.886,49.458 19.065,48.569 18.404,47.545 17.932,46.43 17.418,45.215 17.209,43.837 16.738,40.543 L 14.079,21.929 c -0.108,-0.757 -0.176,-1.241 -0.201,-1.616 -0.023,-0.357 0.003,-0.5 0.026,-0.577 0.082,-0.277 0.243,-0.524 0.462,-0.712 0.061,-0.052 0.181,-0.134 0.515,-0.259 0.353,-0.13 0.823,-0.265 1.558,-0.476 l 15.657,-4.473 c 0.537,-0.153 0.644,-0.179 0.74,-0.19 z m 22.067,8.675 -2.187,15.304 c 6.647,0.842 11.786,6.517 11.786,13.392 0,7.456 -6.044,13.5 -13.5,13.5 -4.992,0 -9.351,-2.71 -11.687,-6.739 l -0.353,0.225 -0.223,0.141 c -1.651,1.053 -2.792,1.779 -4.051,2.07 -1.109,0.255 -2.262,0.255 -3.371,0 -1.259,-0.291 -2.4,-1.017 -4.052,-2.07 l -0.222,-0.141 -4.089,-2.602 v 0 C 20.398,53.754 18.873,52.784 17.681,51.493 16.626,50.35 15.776,49.033 15.17,47.6 14.484,45.982 14.229,44.193 13.801,41.194 L 11.102,22.301 c -0.099,-0.69 -0.184,-1.289 -0.217,-1.793 -0.035,-0.535 -0.021,-1.073 0.143,-1.625 0.246,-0.831 0.728,-1.573 1.386,-2.137 0.437,-0.374 0.922,-0.607 1.425,-0.794 0.473,-0.175 1.056,-0.341 1.725,-0.533 l 0.051,-0.014 15.656,-4.473 0.083,-0.024 c 0.41,-0.117 0.771,-0.221 1.148,-0.263 0.333,-0.037 0.668,-0.037 1,0 0.378,0.042 0.739,0.146 1.148,0.263 l 0.083,0.024 15.707,4.487 c 0.67,0.192 1.252,0.358 1.726,0.533 0.502,0.187 0.988,0.42 1.425,0.794 0.658,0.564 1.139,1.306 1.386,2.137 0.163,0.552 0.178,1.09 0.143,1.625 -0.033,0.504 -0.119,1.103 -0.217,1.792 z m -3.901,18.196 c -5.799,0 -10.5,4.701 -10.5,10.5 0,5.799 4.701,10.5 10.5,10.5 5.799,0 10.5,-4.701 10.5,-10.5 0,-5.799 -4.701,-10.5 -10.5,-10.5 z m 7.152,6.961 c 0.531,-0.637 0.445,-1.583 -0.192,-2.113 -0.636,-0.53 -1.582,-0.445 -2.112,0.192 l -6.449,7.738 -3.338,-3.339 c -0.586,-0.585 -1.536,-0.585 -2.121,0 -0.586,0.586 -0.586,1.536 0,2.122 l 4.5,4.5 c 0.298,0.298 0.707,0.457 1.128,0.438 0.421,-0.019 0.815,-0.215 1.084,-0.538 z M 25.502,29.997 c 0,-4.142 3.358,-7.5 7.5,-7.5 4.142,0 7.5,3.358 7.5,7.5 0,2.454 -1.178,4.632 -3,6.001 v 5.999 c 0,2.486 -2.014,4.5 -4.5,4.5 -2.485,0 -4.5,-2.014 -4.5,-4.5 v -5.999 c -1.821,-1.369 -3,-3.547 -3,-6.001 z m 9,7.5 h -3 v 4.5 c 0,0.829 0.672,1.5 1.5,1.5 0.829,0 1.5,-0.671 1.5,-1.5 z m -1.5,-3 c 2.486,0 4.5,-2.014 4.5,-4.5 0,-2.485 -2.014,-4.5 -4.5,-4.5 -2.485,0 -4.5,2.015 -4.5,4.5 0,2.486 2.015,4.5 4.5,4.5 z"
   style="fill:#28323f"
   id="path2" />
    </g>
</svg>
